# xmcd CD database file
#
# Track frame offsets:
#	150
#	13641
#	27647
#	39008
#	54438
#	67339
#	83567
#	94220
#	108407
#	120265
#
# Disc length: 1855 seconds
#
# Revision: 0
# Processed by: cddbd v1.5.2PL0 Copyright (c) Steve Scherf et al.
# Submitted via: CDex 1.70beta2
#
DISCID=77073d0a
DTITLE=Various Artist - JAZZIN' Xmas
DYEAR=2011
DGENRE=Jazz
TTITLE0=SILENT NIGHT (Remix) - BING CROSBY 
TTITLE1=SANTA CLAUS EXPRESS (Remix) - HENRY HALL and THE BBC ORCHESTRA 
TTITLE2=HERE COMES SANTA CLAUS (Remix) - DORIS DAY
TTITLE3=JINGLE BELLS (Remix) - BING CROSBY
TTITLE4=FROSTY THE SNOWMAN (Remix) - GENE AUTRY
TTITLE5=I SAW MOMMY KISSING SANTA CLAUS (Remix) - THE PLATTERS
TTITLE6=THE FIRST NOEL (Remix) - DINAH SHORE
TTITLE7=RUDOLPH THE RED NOSED REINDER (Remix) - GENE AUTRY
TTITLE8=JOY TO THE WORLD (Remix) - KATE SMITH
TTITLE9=BLUE CHRISTMAS (Remix) - HUGO WINTERHALTER and HIS ORCHESTRA
EXTD=YEAR: 2011
EXTT0=
EXTT1=
EXTT2=
EXTT3=
EXTT4=
EXTT5=
EXTT6=
EXTT7=
EXTT8=
EXTT9=
PLAYORDER=
